<?xml version="1.0" encoding="utf-8"?>
<!-- Generator: Adobe Illustrator 25.1.0, SVG Export Plug-In . SVG Version: 6.00 Build 0)  -->
<svg version="1.1" id="Livello_1" xmlns="http://www.w3.org/2000/svg" xmlns:xlink="http://www.w3.org/1999/xlink" x="0px" y="0px"
	 viewBox="0 0 702.8 252.4" style="enable-background:new 0 0 702.8 252.4;" xml:space="preserve">
<style type="text/css">
	.st0{clip-path:url(#SVGID_2_);}
	.st1{clip-path:url(#SVGID_4_);fill:#1F2931;}
	.st2{clip-path:url(#SVGID_4_);fill:#FFFFFF;}
	.st3{clip-path:url(#SVGID_4_);fill:#C9CC00;}
	.st4{clip-path:url(#SVGID_4_);fill:#7BA02B;}
	.st5{clip-path:url(#SVGID_4_);fill:#4A6F2B;}
</style>
<g>
	<g>
		<defs>
			<rect id="SVGID_1_" x="129.8" y="-30.5" width="443.2" height="313.4"/>
		</defs>
		<clipPath id="SVGID_2_">
			<use xlink:href="#SVGID_1_"  style="overflow:visible;"/>
		</clipPath>
		<g class="st0">
			<defs>
				<rect id="SVGID_3_" x="129.8" y="-30.5" width="443.2" height="313.4"/>
			</defs>
			<clipPath id="SVGID_4_">
				<use xlink:href="#SVGID_3_"  style="overflow:visible;"/>
			</clipPath>
			<path class="st1" d="M447.3,236.7c0,8.8-7.2,16-16,16H271.5c-8.8,0-16-7.2-16-16V15.7c0-8.8,7.2-16,16-16h159.7
				c8.8,0,16,7.2,16,16V236.7"/>
			<path class="st2" d="M400,170c0,0,0-0.2,0-0.3c0-0.1,0-0.2,0.1-0.2l-0.5,0.3l-1.5,0.8l-1.4,0.7c-0.2,0.1-0.4,0.2-0.5,1.3l0,0.3
				v12.7H385l0-11.4c0-1.7-0.4-3-1.3-3.8c-0.9-0.8-2.2-1.2-4-1.1c-0.1,0-9.9-0.3-17.6,6.1l-1.4,1.7l-0.5,0.7l-0.3-0.8
				c-0.3-0.7-0.8-1.5-1.5-2.4l-0.5-0.5c0,0-0.2-0.2-0.4-0.3c0.1,0.5,0.2,1.8,0.2,3.5v8.3l-6.3,0v-28.5c0-0.5,0-0.6,0-0.6l-0.5,0.3
				l-1.5,0.8L348,158c-0.2,0.1-0.5,0.2-0.5,1.5v25.5c0,1.4,0,2.1,0.8,3.1c0.4,0.5,1.1,1.5,3.2,1.5h6l0,0.4c0,2.1-1.1,5.7-1.2,5.8
				c0,0,0,0.1-0.1,0.2c0.4-0.2,0.9-0.6,1.5-1.2c1.7-2,2.5-3.9,2.9-5l0.1-0.3h25.9l8.9,0c0,0,1.7,0.1,2.8-0.7
				c1.2-0.9,1.6-1.6,1.6-3.9c0,0,0-8.2,0-10.5C400,174.1,400,170.1,400,170 M381,185.3h-19.5l0-0.3c0-0.1,1.2-11.1,16.9-11.6
				c0.8,0,1.4,0.2,1.8,0.7c0.8,0.8,0.7,2,0.7,2.1V185.3z"/>
			<path class="st2" d="M318.2,185.2v-9.1c0-1.3,0.3-1.4,0.5-1.5l1.4-0.7c0,0,1.8-1,1.9-1.1c0,0.1,0,0.2,0,0.5l0,12.8
				c0,0.9-0.5,1.9-1.2,2.6c-1.1,1-2.2,1-3,1c-0.1,0-21.5,0-21.5,0c-0.4,0-3.7-0.2-5.6-3.5c-0.8-1.4-1.3-3.1-1.3-5
				c0-1.3,0.2-2.7,0.6-4.2c0.3-1.1,0.6-1.6,0.8-1.8c0,0.1,0,0.2,0.1,0.4c0,0,0.6,4.3,1.5,6.1c1.7,3.9,6.7,3.6,6.8,3.6l18.5,0h0.3
				V185.2 M322.3,172.3L322.3,172.3L322.3,172.3L322.3,172.3z"/>
			<path class="st2" d="M337.2,160.5v-0.1c0-1.3,0.3-1.4,0.5-1.5l1.4-0.7c0,0,1.8-1,1.9-1.1c0,0.1,0.1,0.2,0.1,0.5v14.8
				c0,13.3-6.2,17.1-6.6,17.4h-5.9c2-1.4,3.8-2.9,5.1-4.6l0.1-0.1l0-0.2l-7-15.5c0,0-1-2.2-1-4.6c0-1.7,0.5-3.5,2-4.9
				c0,0.2,0,0.4,0,0.4c0.1,1.5,0.5,4.1,1.5,6.1c0,0.1,4.3,8.2,6,12.3l0.5,1.5l0.3,0.8l0.3-0.8l0.1-0.4c0.6-1.8,0.7-3.2,0.7-3.8h0
				l0-0.2v-0.3l0,0V160.5 M341.3,156.5L341.3,156.5L341.3,156.5z"/>
			<path class="st2" d="M303.2,215.3l-12.8,1.3c0.5,4,3.5,5.5,6.7,5.5h8.2c1.2,0,1.9,0.8,1.9,1.9c0,0.5,0,1.6,0,1.6h-10.2
				c-5.7,0-10.5-3.7-10.5-11.3c0-6.5,4.5-10.9,10.9-10.9c4.6,0,8.4,2.8,9.4,7.1C307.6,213.2,306.2,215,303.2,215.3 M300.9,212.4
				c1-0.1,1.8-0.3,2.2-0.7c0.4-0.4,0.3-1.1,0.1-1.7c-0.8-1.8-2.9-3.2-5.6-3.2c-4.1,0-7,2.7-7,6.7
				C290.5,213.6,300.4,212.5,300.9,212.4"/>
			<path class="st2" d="M347.8,203.6c1.2,0,2.1,0.6,2.1,1.8c0,1.2-0.9,1.8-2.1,1.8h-8.9c-1.9,0.1-2.1,2-1.9,3.2
				c0.1,0.4,0.2,0.7,0.5,0.9c0.6,0.5,1.6,0.7,2.6,0.8l6.8,1.2c3.6,0.7,4.9,2.5,4.9,5.7c0,5-3.1,6.8-7.9,6.8h-11.2c0,0,0-1.2,0-1.8
				c0-1.2,0.8-1.8,2.1-1.8h8.9c3.5,0,4.4-1.1,4.4-3c0-1.7-0.5-2.4-2.8-2.8l-6.8-1.1c-3.5-0.6-5-2.4-5.2-4.7c-0.3-3.4,1.1-7,5.8-7
				H347.8"/>
			<path class="st2" d="M372.2,211.4c0-3.9-1-7.8-6.8-7.8h-8c-1.3,0-2.1,0.6-2.1,1.8c0,1.2,0.8,1.8,2.1,1.8h7.5
				c2.6,0,3.5,0.6,3.5,2.5v0.6c-0.2,1.1-1.4,1.4-2.1,1.6c-5.4,1.3-12.6-0.1-12.6,7.6c0,4.1,3.5,6.5,8.3,6.5c0.1,0,4.8,0.2,6.6-2.2
				c0,0,0,0.1,0,0.2c0.1,1.2,0.7,1.9,1.9,1.9h1.6L372.2,211.4 M368.4,217.8c0,3.8-2.1,5.1-5.7,5.1c-3.3,0-5.1-1.2-5.1-3.8
				c0-1.9,1.6-3.2,3.6-3.5c2-0.3,5-0.5,7.2-1V217.8z"/>
			<path class="st2" d="M401.2,211.4c0-3.9-1-7.8-6.8-7.8h-8c-1.3,0-2.1,0.6-2.1,1.8c0,1.2,0.8,1.8,2.1,1.8h7.5
				c2.6,0,3.5,0.6,3.5,2.5v0.6c-0.2,1.1-1.4,1.4-2.1,1.6c-5.4,1.3-12.6-0.1-12.6,7.6c0,4.1,3.5,6.5,8.3,6.5c0.1,0,4.8,0.2,6.6-2.2
				c0,0,0,0.1,0,0.2c0.1,1.2,0.7,1.9,1.9,1.9h1.6L401.2,211.4 M397.4,217.8c0,3.8-2.1,5.1-5.7,5.1c-3.2,0-5.1-1.2-5.1-3.8
				c0-1.9,1.6-3.2,3.6-3.5c2-0.3,5-0.5,7.2-1V217.8z"/>
			<path class="st2" d="M379.8,197.6h-2.1c-1.9,0-1.7,1.7-1.7,1.7v20.6l0,5.9l3.8,0V197.6"/>
			<path class="st2" d="M319.7,222.4c-2.9,0-4-0.1-4-2.3v-13h3.4c1.2,0,2.1-0.6,2.1-1.8c0-1.2-0.9-1.8-2.1-1.8h-3.4v-5.9l-1.6,0
				c-0.3,0-0.5,0-0.8,0c-1.5,0.2-1.4,1.7-1.4,1.7v4.2h-1c-1.2,0-2.1,0.6-2.1,1.8c0,1.2,0.9,1.8,2.1,1.8h1V221c0,4.7,3.3,4.7,7.8,4.7
				c0.7,0,2.3,0,2.3,0s0-1,0-1.5C322,223.1,321.1,222.4,319.7,222.4"/>
			<path class="st2" d="M414.2,222.4c-2.9,0-4-0.1-4-2.3v-13h3.4c1.2,0,2.1-0.6,2.1-1.8c0-1.2-0.9-1.8-2.1-1.8h-3.4v-5.9l-1.6,0
				c-0.3,0-0.5,0-0.8,0c-1.5,0.2-1.4,1.7-1.4,1.7v4.2h-1c-1.2,0-2.1,0.6-2.1,1.8c0,1.2,0.9,1.8,2.1,1.8h1V221c0,4.7,3.2,4.7,7.8,4.7
				c0.7,0,2.3,0,2.3,0v-1.5C416.4,223.1,415.6,222.4,414.2,222.4"/>
			<path class="st2" d="M329.1,225.7l0-22.2l-2.1,0c-1.4,0-1.7,0.9-1.7,1.7c0,0.3,0,20.5,0,20.5H329.1"/>
			<path class="st2" d="M326.8,201.9c0.9,0,1.4,0,1.9-0.5c0.4-0.4,0.4-1,0.4-1.8c0-0.4,0-1.9,0-1.9H327c-1.4,0-1.7,0.9-1.7,1.7
				c0,0.3,0,2.5,0,2.5H326.8"/>
			<path class="st2" d="M406.5,181.2l0-21c0-1.3,0.3-1.4,0.5-1.5l1.5-0.7l2-1.1l0,0.1c0,0.1,0,0.2,0,0.5v12.9l0,0v19.3h-3.9V181.2"
				/>
			<path class="st2" d="M303.1,172.8c0.9,0,1.4,0,1.9-0.5c0.4-0.4,0.4-1,0.4-1.8c0-0.4,0-2,0-2h-2.2c-1.4,0-1.7,0.9-1.7,1.7
				c0,0.3,0,2.5,0,2.5H303.1"/>
			<path class="st2" d="M308.2,172.8c0.9,0,1.4,0,1.9-0.5c0.4-0.4,0.4-1,0.4-1.8v-2h-2.2c-1.4,0-1.7,0.9-1.7,1.7c0,0.3,0,2.5,0,2.5
				H308.2"/>
			<path class="st2" d="M392.6,166c0.9,0,1.4,0,1.9-0.5c0.4-0.4,0.4-1,0.4-1.8c0-0.4,0-2,0-2h-2.2c-1.4,0-1.7,0.9-1.7,1.7v2.5
				C391.1,166,392.2,166,392.6,166"/>
			<path class="st2" d="M397.6,166c0.9,0,1.4,0,1.9-0.5c0.4-0.4,0.4-1,0.4-1.8c0-0.4,0-2,0-2h-2.2c-1.4,0-1.7,0.9-1.7,1.7
				c0,0.3,0,2.5,0,2.5S397.2,166,397.6,166"/>
			<path class="st3" d="M329.5,129.9c-2.3,0-4.2-0.4-5.7-1.1c-7.2-3.7-12.8-21.6-12.7-39.9c0.1-12,7.6-18.6,19-18.6
				c6.1,0,13.2,1.9,20.9,5.8c22,11.4,27.7,29.2,12.7,39.9C351.9,124.6,338.3,129.9,329.5,129.9 M326.8,51.9c-3.3,0-6.2,0.4-8.8,1.3
				c-9.9,3-13.8,12.3-13,25.1c0.8,12.8,4.7,26.1,7.7,35.8c3.3,9.8,5.5,16,9.5,18.1c1.2,0.6,2.6,0.9,4.3,0.9c3.9,0,9-1.5,16-3.6
				c9.6-3.2,22.8-7.7,33.7-14.5c10.9-6.8,16.2-15.3,12.9-25.2c-3-9.7-14.4-20.7-30.1-28.8C347.3,55.1,335.8,51.9,326.8,51.9
				 M286.9,40.8c-5.7,7.4-5.8,19.5-2,34.5c5.3,21.1,14.4,42.5,18.6,56.8c4.9,14.6,4.9,22.1,6.8,23.1c0.2,0.1,0.4,0.1,0.7,0.1
				c2.5,0,8.8-3.9,22.1-7.9c14.1-4.8,36.8-9.7,57.1-17.7c14.3-5.6,24.1-12.7,26.9-21.4c-4.5,6.1-12.8,11.3-23.8,15.6
				c-20.3,7.9-43,12.9-57.1,17.7c-13.3,4-19.6,7.9-22.1,7.9c-0.3,0-0.5-0.1-0.7-0.2c-1.9-1-1.9-8.4-6.8-23.1
				c-4.2-14.3-13.4-35.6-18.6-56.8C285,57.9,284.4,48.1,286.9,40.8"/>
			<path class="st4" d="M311,26.8c-4.3,0-8.1,0.5-11.3,1.6c-6.7,2-10.9,6.3-12.9,12.4c2.3-3,5.6-5.2,9.8-6.5c3.2-1.1,7-1.6,11.3-1.6
				c14.8,0,35.4,6.2,56.6,17.2c27.5,14.2,47.8,32.1,52,46.4c1.5,4.3,1.5,8.3,0.3,12c3.9-5.2,5-11.1,2.7-17.9
				c-4.2-14.3-24.5-32.2-52-46.4C346.4,33,325.8,26.8,311,26.8"/>
			<path class="st5" d="M417,108.2c0.6-1.7,0.8-3.5,0.8-5.4c0-2.1-0.4-4.3-1.1-6.6c-4.2-14.3-24.5-32.2-52-46.4
				c-21.3-11-41.9-17.2-56.6-17.2c-4.3,0-8.1,0.5-11.3,1.6c-4.3,1.3-7.5,3.5-9.8,6.5c2-6.1,6.2-10.4,12.9-12.4
				c3.2-1.1,7-1.6,11.3-1.6c14.8,0,35.4,6.2,56.7,17.2c27.5,14.2,47.8,32.1,52,46.4c0.8,2.3,1.1,4.5,1.1,6.6
				C420.9,101.1,419.5,104.8,417,108.2"/>
			<path class="st4" d="M326.5,133.1c-1.7,0-3.1-0.3-4.3-0.9c-4-2.1-6.3-8.3-9.5-18.1c-3-9.7-6.9-23-7.7-35.8
				c-0.8-12.8,3.1-22.1,13-25.1c2.5-0.8,5.5-1.3,8.8-1.3c9.1,0,20.6,3.2,32.1,9.2c15.7,8.1,27.2,19.1,30.1,28.8
				c3.3,9.8-2,18.4-12.9,25.2c-10.9,6.8-24.1,11.3-33.7,14.5C335.5,131.6,330.3,133.1,326.5,133.1 M308,32.7
				c-4.3,0-8.1,0.5-11.3,1.6c-4.3,1.3-7.5,3.5-9.8,6.5c-2.4,7.3-1.9,17.1,1,28.6c5.3,21.1,14.4,42.5,18.6,56.8
				c4.9,14.6,4.9,22.1,6.8,23.1c0.2,0.1,0.4,0.2,0.7,0.2c2.5,0,8.8-3.9,22.1-7.9c14.1-4.8,36.8-9.7,57.1-17.7
				c11-4.3,19.3-9.4,23.8-15.6c1.2-3.7,1.1-7.7-0.3-12c-4.2-14.3-24.5-32.2-52-46.4C343.4,38.8,322.8,32.7,308,32.7"/>
		</g>
	</g>
</g>
</svg>
