<svg xmlns="http://www.w3.org/2000/svg" version="1.1" xmlns:xlink="http://www.w3.org/1999/xlink" xmlns:svgjs="http://svgjs.com/svgjs" width="1440" height="560" preserveAspectRatio="none" viewBox="0 0 1440 560"><g mask="url(&quot;#SvgjsMask1408&quot;)" fill="none"><rect width="1440" height="560" x="0" y="0" fill="rgba(255, 255, 255, 1)"></rect><path d="M81.71 45.56L132.8 75.06L132.8 134.06L81.71 163.56L30.61 134.06L30.61 75.06zM81.71 222.56L132.8 252.06L132.8 311.06L81.71 340.56L30.61 311.06L30.61 252.06zM30.61 311.06L81.71 340.56L81.71 399.56L30.61 429.06L-20.49 399.56L-20.49 340.56zM81.71 399.56L132.8 429.06L132.8 488.06L81.71 517.56L30.61 488.06L30.61 429.06zM132.8 488.06L183.9 517.56L183.9 576.56L132.8 606.06L81.71 576.56L81.71 517.56zM235 134.06L286.09 163.56L286.09 222.56L235 252.06L183.9 222.56L183.9 163.56zM286.09 222.56L337.19 252.06L337.19 311.06L286.09 340.56L235 311.06L235 252.06zM235 311.06L286.09 340.56L286.09 399.56L235 429.06L183.9 399.56L183.9 340.56zM388.29 399.56L439.39 429.06L439.39 488.06L388.29 517.56L337.19 488.06L337.19 429.06zM337.19 488.06L388.29 517.56L388.29 576.56L337.19 606.06L286.09 576.56L286.09 517.56zM439.39 134.06L490.48 163.56L490.48 222.56L439.39 252.06L388.29 222.56L388.29 163.56zM439.39 311.06L490.48 340.56L490.48 399.56L439.39 429.06L388.29 399.56L388.29 340.56zM541.58 -42.94L592.68 -13.44L592.68 45.56L541.58 75.06L490.48 45.56L490.48 -13.44zM592.68 45.56L643.77 75.06L643.77 134.06L592.68 163.56L541.58 134.06L541.58 75.06zM694.87 222.56L745.97 252.06L745.97 311.06L694.87 340.56L643.77 311.06L643.77 252.06zM643.77 311.06L694.87 340.56L694.87 399.56L643.77 429.06L592.68 399.56L592.68 340.56zM797.06 399.56L848.16 429.06L848.16 488.06L797.06 517.56L745.97 488.06L745.97 429.06zM950.36 488.06L1001.45 517.56L1001.45 576.56L950.36 606.06L899.26 576.56L899.26 517.56zM1103.65 222.56L1154.74 252.06L1154.74 311.06L1103.65 340.56L1052.55 311.06L1052.55 252.06zM1154.74 -42.94L1205.84 -13.44L1205.84 45.56L1154.74 75.06L1103.65 45.56L1103.65 -13.44zM1205.84 45.56L1256.94 75.06L1256.94 134.06L1205.84 163.56L1154.74 134.06L1154.74 75.06zM1205.84 222.56L1256.94 252.06L1256.94 311.06L1205.84 340.56L1154.74 311.06L1154.74 252.06zM1154.74 311.06L1205.84 340.56L1205.84 399.56L1154.74 429.06L1103.65 399.56L1103.65 340.56zM1256.94 -42.94L1308.03 -13.44L1308.03 45.56L1256.94 75.06L1205.84 45.56L1205.84 -13.44zM1308.03 45.56L1359.13 75.06L1359.13 134.06L1308.03 163.56L1256.94 134.06L1256.94 75.06zM1308.03 399.56L1359.13 429.06L1359.13 488.06L1308.03 517.56L1256.94 488.06L1256.94 429.06zM1256.94 488.06L1308.03 517.56L1308.03 576.56L1256.94 606.06L1205.84 576.56L1205.84 517.56zM1359.13 311.06L1410.23 340.56L1410.23 399.56L1359.13 429.06L1308.03 399.56L1308.03 340.56z" stroke="rgba(6, 80, 156, 0.93)" stroke-width="2"></path></g><defs><mask id="SvgjsMask1408"><rect width="1440" height="560" fill="#ffffff"></rect></mask></defs></svg>