<?xml version="1.0" encoding="utf-8"?>
<!-- Generator: Adobe Illustrator 24.0.3, SVG Export Plug-In . SVG Version: 6.00 Build 0)  -->
<svg version="1.1" id="Livello_1" xmlns="http://www.w3.org/2000/svg" xmlns:xlink="http://www.w3.org/1999/xlink" x="0px" y="0px"
	 viewBox="0 0 702.8 252.4" style="enable-background:new 0 0 702.8 252.4;" xml:space="preserve">
<style type="text/css">
	.st0{fill:#004BB7;}
</style>
<title>mubadala</title>
<g id="Livello_2_1_">
	<g id="Artwork">
		<path class="st0" d="M571.5,201.3c-3.3,14.2-10.5,27.3-20.8,37.6h55.9c10.6-58-27.6-119.9-90-133.3
			C529.3,109.1,584.1,134.9,571.5,201.3"/>
		<path class="st0" d="M381.6,12.2v226.8h24.2c14.7,0,18.1,0.3,26.1-1c34.6-5,66.2-33.2,69.6-58.1c5.1-29.4-10.9-55.2-41.7-61.6
			c-0.6-0.1-1.2-0.3-1.8-0.5c-1.1,0-16.1,0.2-27.6-2.9c-0.1,0.1-6.6,5.3-4,15.1c0,0-15.4-16.1-5.6-37.7c0,0,4.8-10.2,20.9-20.6
			c0.1-0.2,0.2-0.3,0.4-0.4c4.3-5.1,14.6-14.1,29.6-21.2c7.6-3.4,20.8-8.4,35.5-9.6c67.1-6.2,101.3,45.1,101.3,45.1V12.2H381.6z"/>
		<path class="st0" d="M546.3,65.8c-32.5-4.3-59.8,4.1-81.3,19.1c5.2-2.8,10.5-5.2,16.1-7.1c1.7,6.6,7,11.7,13.8,13
			c9.5,2,18.6-3.6,20.5-12.4c0.5-2.3,0.4-4.7-0.2-7c62-1.9,93.2,45.4,93.2,45.4V96.3C598.9,86.7,575.4,69,546.3,65.8"/>
		<path class="st0" d="M113.8,187.2h10.3l19.4,51.7h-11.6l-4.1-11.9h-18.1l-4.1,11.9H94.4L113.8,187.2z M125,218.1l-6.3-18.5
			l-6.3,18.5H125z"/>
		<path class="st0" d="M149.8,187.2h19.3c7.9,0,14.1,2.1,18.5,6.4s6.6,10.7,6.6,19.1c0.1,3.8-0.6,7.7-1.9,11.3
			c-1.1,3.1-3,5.9-5.3,8.2c-2.4,2.3-5.3,4-8.5,5c-3.7,1.2-7.5,1.7-11.3,1.7h-17.5V187.2z M167.5,229.7c2.4,0.1,4.9-0.3,7.2-1.2
			c1.9-0.7,3.5-1.9,4.8-3.4c1.3-1.6,2.2-3.4,2.7-5.3c0.6-2.3,0.9-4.6,0.9-6.9c0-2.3-0.2-4.6-0.8-6.8c-0.4-1.9-1.3-3.6-2.4-5.2
			c-1.1-1.4-2.6-2.5-4.3-3.3c-2.1-0.8-4.3-1.2-6.5-1.2h-8.6v33.3H167.5z"/>
		<path class="st0" d="M202.9,187.2h9.7l21.3,33.9v-33.9h10.5V239h-9.6l-21.4-33.6v33.6h-10.5L202.9,187.2z"/>
		<path class="st0" d="M149.8,154.2v-45.8h10.8v55.3h-45c-7.2,0-12.5-1.5-15.9-4.6c-3.5-3.1-5.2-7.8-5.2-14.2
			c-0.1-3.2,0.7-6.4,2.2-9.3c1.5-2.7,3.7-4.9,6.4-6.3c3.1-1.6,6.6-2.5,10.1-2.6l1.3,9.2c-3.5,0.3-5.9,1.1-7.4,2.5
			c-1.5,1.4-2.2,3.6-2.2,6.5c0,3.3,0.8,5.6,2.5,7.1c1.7,1.5,4.3,2.2,7.9,2.2L149.8,154.2z M139.8,130.7v3.6H126v-3.6h1.7v-2.3
			c-0.1-1.6,0.5-3.1,1.6-4.3c1.2-1.1,2.8-1.6,4.4-1.5c1.5-0.1,3,0.3,4.1,1.2c1,1.1,1.7,2.5,1.8,4.1l-3.5,0.5c0-0.7-0.2-1.3-0.6-1.8
			c-0.4-0.4-1-0.6-1.6-0.5c-1.6,0-2.4,0.9-2.4,2.7v2L139.8,130.7z"/>
		<path class="st0" d="M263.5,125.2v29h-59.2v-11c0-6-1.4-10.6-4.3-13.6c-2.8-3-7.2-4.5-13-4.5c-5.5,0-9.9,1.6-13.1,4.8
			c-3.2,3.2-4.8,7.5-4.8,13c0,6.4,2,12.1,6,15.5s9.8,5.1,17.3,5.1h1.4v1.2c0,4.2-0.5,6.6-1.6,8l5.3,8.3c0.9-0.5,1.7-1.2,2.4-1.9
			c2.9-2.9,4.3-9.5,4.3-15.6H274v-38.4H263.5z M193.9,154.2h-3.3c-7.3,0-11-4.2-11-11.2c0-2.9,0.6-5.1,1.9-6.7
			c1.3-1.6,3.3-2.5,5.4-2.3c1.4-0.1,2.9,0.2,4.2,0.9c1.1,0.8,1.9,1.9,2.1,3.2c0.5,2.6,0.7,5.2,0.7,7.8L193.9,154.2z"/>
		<path class="st0" d="M274,119.9v-10.5h-10.5v10.4L274,119.9z"/>
		<path class="st0" d="M323.4,154.2v-5.6c0-4.7-0.9-8.3-2.7-10.5c-1.8-2.3-4.5-3.4-8.2-3.4c-2.7,0.1-5.4,0.5-7.9,1.4l-2.5-9.2
			c3.6-1.1,7.4-1.7,11.2-1.7c6.6,0,11.7,1.9,15.2,5.8c3.5,3.9,5.3,9.4,5.3,16.6v16h-52v-9.4H323.4z"/>
		<path class="st0" d="M354.6,105.8v3.6h-13.8v-3.6h1.7v-2.3c-0.1-1.6,0.5-3.1,1.5-4.3c2.5-1.9,5.9-2,8.5-0.3c1,1.1,1.7,2.5,1.7,4.1
			l-3.5,0.5c0-0.7-0.2-1.3-0.6-1.8c-0.4-0.4-1-0.6-1.6-0.5c-1.6,0-2.4,0.9-2.4,2.7v2L354.6,105.8z"/>
		<rect x="342.7" y="113.6" class="st0" width="10.5" height="50.1"/>
		<path class="st0" d="M278,240.2c-3.5,0.1-7.1-0.6-10.4-1.9c-3-1.2-5.6-3.1-7.8-5.4c-2.2-2.5-3.9-5.4-4.9-8.5
			c-2.3-7.4-2.3-15.2,0-22.6c1-3.2,2.7-6.1,4.9-8.5c2.2-2.4,4.8-4.2,7.8-5.4c6.7-2.5,14-2.5,20.6,0c3,1.2,5.6,3.1,7.7,5.4
			c2.2,2.5,3.8,5.4,4.8,8.5c1.2,3.7,1.7,7.5,1.7,11.3c0.1,3.8-0.5,7.6-1.6,11.3c-1,3.1-2.6,6.1-4.8,8.5c-2.1,2.4-4.8,4.2-7.7,5.4
			C285.1,239.7,281.6,240.3,278,240.2z M277.9,231c4.5,0,7.9-1.5,10.1-4.6s3.3-7.5,3.4-13.2c0-5.7-1.1-10.1-3.3-13.2
			c-2.2-3.1-5.6-4.7-10.2-4.7c-4.5,0-7.9,1.6-10.1,4.7c-2.2,3.1-3.3,7.5-3.4,13.2c0,5.7,1.1,10.2,3.3,13.2
			C270,229.4,273.3,231,277.9,231z"/>
		<path class="st0" d="M355.2,221c-0.2,2.6-0.9,5.2-1.9,7.6c-1,2.3-2.5,4.4-4.3,6.1c-1.9,1.8-4.2,3.1-6.7,4c-2.9,1-6,1.5-9.2,1.4
			c-3.5,0.1-7.1-0.6-10.3-2c-2.9-1.2-5.4-3.1-7.5-5.5c-2.1-2.5-3.6-5.4-4.5-8.6c-1-3.6-1.6-7.4-1.5-11.1c-0.1-3.8,0.5-7.6,1.7-11.3
			c1-3.1,2.6-6,4.8-8.5c2.1-2.4,4.6-4.2,7.5-5.4c3.2-1.3,6.6-1.9,10-1.9c2.9-0.1,5.8,0.4,8.6,1.2c2.3,0.7,4.4,1.9,6.2,3.6
			c1.7,1.6,3,3.5,4,5.6c1.1,2.3,1.8,4.8,2.2,7.3l-10.7,1.4c-0.3-2.6-1.4-5.1-3.1-7.2c-1.5-1.7-3.9-2.6-7.2-2.6
			c-3.7-0.2-7.3,1.6-9.5,4.7c-2.1,3.1-3.2,7.5-3.2,13.2c0,5.7,1.1,10.1,3.4,13.2c2.1,3,5.6,4.7,9.2,4.6c3.3,0,5.8-0.9,7.3-2.6
			c1.7-2.1,2.8-4.7,2.9-7.4H355.2z"/>
	</g>
</g>
</svg>
